FFmpeg version SVN-r25716, Copyright (c) 2000-2010 the FFmpeg developers  built on Nov 10 2010 12:23:18 with gcc 4.1.2 20080704 (Red Hat 4.1.2-48)  configuration: --enable-libmp3lame --enable-shared --disable-mmx --arch=x86_64  libavutil     50.33. 0 / 50.33. 0  libavcore      0.12. 1 /  0.12. 1  libavcodec    52.94. 4 / 52.94. 4  libavformat   52.84. 0 / 52.84. 0  libavdevice   52. 2. 2 / 52. 2. 2  libavfilter    1.59. 0 /  1.59. 0  libswscale     0.12. 0 /  0.12. 0Input #0, avi, from '/RAID10/data/converted_video_files/11946.avi':  Duration: 00:00:21.78, start: 0.000000, bitrate: 1853 kb/s    Stream #0.0: Video: mpeg4, yuv420p, 720x480 [PAR 1:1 DAR 3:2], 25 tbr, 29.97 tbn, 25 tbc[buffer @ 0x10fe3cd0] w:720 h:480 pixfmt:yuv420pOutput #0, flv, to '/RAID10/data/converted_video_files/11946.flv':  Metadata:    encoder         : Lavf52.84.0    Stream #0.0: Video: flv, yuv420p, 720x480 [PAR 1:1 DAR 3:2], q=2-31, 600 kb/s, 1k tbn, 24 tbcStream mapping:  Stream #0.0 -> #0.0Press [q] to stop encodingframe=   63 fps=  0 q=3.7 size=     305kB time=2.67 bitrate= 937.6kbits/s dup=0 drop=15    frame=  127 fps=123 q=4.3 size=     528kB time=5.33 bitrate= 811.3kbits/s dup=0 drop=32    frame=  192 fps=124 q=4.3 size=     740kB time=8.04 bitrate= 753.4kbits/s dup=0 drop=48    frame=  256 fps=126 q=4.3 size=     958kB time=10.71 bitrate= 733.2kbits/s dup=0 drop=63    frame=  319 fps=126 q=4.8 size=    1155kB time=13.33 bitrate= 709.7kbits/s dup=0 drop=79    frame=  379 fps=125 q=6.2 size=    1348kB time=15.83 bitrate= 697.2kbits/s dup=0 drop=94    frame=  441 fps=124 q=5.2 size=    1536kB time=18.42 bitrate= 683.2kbits/s dup=0 drop=109    frame=  500 fps=124 q=5.2 size=    1724kB time=20.87 bitrate= 676.6kbits/s dup=0 drop=124    frame=  523 fps=123 q=5.7 Lsize=    1796kB time=21.83 bitrate= 673.9kbits/s dup=0 drop=130    video:1788kB audio:0kB global headers:0kB muxing overhead 0.468564%